<svg xmlns="http://www.w3.org/2000/svg" xmlns:xlink="http://www.w3.org/1999/xlink" viewBox="0 0 350 218"><path d="M65.16 126.2H77.6c4.46 0 7.84 1.15 10.14 3.45 2.05 2.2 3.12 5.13 2.98 8.14.16 3.37-1.4 6.6-4.12 8.6a15.01 15.01 0 0 1-9.14 2.62h-9.4v14.2h-2.88v-37zm12.54 2.47h-9.66v17.9h9.45c2.88.2 5.7-.78 7.88-2.68a8.12 8.12 0 0 0 2.33-6.07c.15-2.7-.96-5.3-3-7.05a10.75 10.75 0 0 0-7.01-2.1h0zm19.76 14.73H94.5c.16-2.4 1.46-4.58 3.5-5.86 2.06-1.28 4.46-1.9 6.88-1.8 2.78-.16 5.5.8 7.57 2.68 1.6 1.62 2.45 3.84 2.36 6.12v18.7h-2.26l-.46-4.47a10.28 10.28 0 0 1-9.47 5.19c-2.43.15-4.82-.64-6.7-2.2-2.94-2.94-2.95-7.7-.01-10.65.15-.15.32-.3.48-.44 2.24-1.56 4.84-2.53 7.55-2.85l8.14-1.33v-2.3c.1-1.86-.73-3.65-2.2-4.78-1.5-1.03-3.27-1.53-5.08-1.43-1.94-.12-3.85.46-5.4 1.63-1.14.95-1.85 2.32-1.95 3.8zm5.94 18.2c2.32.03 4.56-.86 6.23-2.47a7.3 7.3 0 0 0 2.47-5.5v-4.88l-7.2 1.24a13.03 13.03 0 0 0-6.74 2.57 4.72 4.72 0 0 0-1.5 3.69c-.08 1.7.75 3.3 2.16 4.2 1.38.82 2.97 1.22 4.57 1.14zm19.28 1.6h-2.77v-26.73h2.26l.4 5.14c1.4-3.94 3.9-5.92 7.5-5.92.94-.01 1.88.13 2.78.42v2.72c-.95-.28-1.94-.44-2.93-.46a6.19 6.19 0 0 0-5.35 3.08c-1.35 2.14-2 4.63-1.9 7.16v14.6zm26.84-24.32h-6.23v18.97c0 2.5 1.17 3.76 3.5 3.76a12.7 12.7 0 0 0 3.25-.41v2.2c-1.1.33-2.24.5-3.38.5a6.01 6.01 0 0 1-4.73-1.79 6.47 6.47 0 0 1-1.38-4.38v-18.86h-3.87v-2.4h3.86l.15-6.5h2.62v6.5h6.23v2.42zm6.98 24.32h-2.77v-26.73h2.3l.3 4.57c.9-1.76 2.32-3.2 4.05-4.17 1.5-.8 3.18-1.2 4.88-1.2a8.84 8.84 0 0 1 7.03 2.83c1.55 1.8 2.34 4.13 2.2 6.5v18.17h-2.8v-18.1c.14-2.04-.62-4.04-2.1-5.45a7.37 7.37 0 0 0-5-1.63 7.62 7.62 0 0 0-5.86 2.6c-1.5 1.6-2.3 3.72-2.26 5.9v16.68zm43.7-7.3h3c-.6 2.5-2.12 4.7-4.26 6.12-5.25 3.22-12.04 2.33-16.27-2.15-2.26-2.85-3.4-6.4-3.25-10.04a14.67 14.67 0 0 1 3.95-10.95c2.2-2.16 5.16-3.34 8.23-3.25 3.5-.16 6.87 1.37 9.05 4.12 2.18 3.12 3.25 6.9 3.03 10.7h-21.53c-.12 3.26 1.1 6.42 3.38 8.75 1.8 1.58 4.12 2.43 6.5 2.36a8.62 8.62 0 0 0 5.45-1.74 7.58 7.58 0 0 0 2.7-3.9zm-8.7-17.9c-2.55-.07-5 1.02-6.64 2.98a12.49 12.49 0 0 0-2.67 7.24h18.5a11.14 11.14 0 0 0-3.17-8.02c-1.65-1.5-3.8-2.3-6.02-2.23v.03zm20.23 25.2h-2.78v-26.73h2.26l.4 5.14c1.42-3.94 3.9-5.92 7.52-5.92.94-.01 1.87.13 2.77.42v2.72c-.95-.3-1.94-.44-2.93-.46a6.19 6.19 0 0 0-5.35 3.08 12.63 12.63 0 0 0-1.89 7.16l-.01 14.6z" fill="#0ebce9"></path><g fill="#09bceb"><path d="M99.65 75.34h8.7v34.5h-8.7zm78.93 9.96c-2.25-1.23-4.77-1.87-7.34-1.85a9.21 9.21 0 1 0 0 18.42 15.77 15.77 0 0 0 7.34-1.92v9.26a27.75 27.75 0 0 1-7.94 1.22c-9.76 0-18.4-6.75-18.4-17.9 0-10.3 7.78-17.9 18.4-17.9 2.7.01 5.37.42 7.94 1.24v9.43zm-90.88 0a14.69 14.69 0 0 0-7.31-1.85 9.21 9.21 0 1 0 0 18.42c2.56-.03 5.07-.7 7.3-1.92v9.26a27.75 27.75 0 0 1-7.94 1.22c-9.76 0-18.37-6.75-18.37-17.9 0-10.3 7.78-17.9 18.37-17.9 2.7 0 5.37.42 7.94 1.24v9.43zm136.5 7.3c.2 10.07-7.82 18.4-17.9 18.58s-18.4-7.82-18.58-17.9 7.82-18.4 17.9-18.58h.34c9.77-.3 17.94 7.38 18.23 17.16a17.29 17.29 0 0 1 .01.73zm-18.24-9.08c-5-.04-9.1 4-9.14 9s4 9.1 9 9.14 9.1-4 9.14-9v-.06a8.91 8.91 0 0 0-8.75-9.08h-.26zm-64.56-.32c-2.22-.62-4.5-.97-6.8-1.06-3.5 0-5.4 1.17-5.4 2.83 0 2.1 2.55 2.83 4 3.25l2.4.76c5.65 1.8 8.14 5.66 8.14 9.88 0 8.66-7.6 11.57-14.3 11.57-3.15-.02-6.3-.34-9.4-.94v-7.92c2.7.8 5.5 1.23 8.3 1.3 4.33 0 6.33-1.27 6.33-3.25s-1.72-2.75-3.9-3.43l-1.85-.6c-4.88-1.53-8.9-4.38-8.9-10.1 0-6.5 4.88-10.8 12.85-10.8a37.1 37.1 0 0 1 8.5 1.1v7.4zM52.14 38.28c0-2.4-1.94-4.33-4.33-4.33s-4.33 1.94-4.33 4.33v9.05c0 2.4 1.94 4.33 4.33 4.33s4.33-1.94 4.33-4.33v-9.05z"></path><use xlink:href="#B"></use><path d="M99.64 10.1c0-2.4-1.94-4.33-4.33-4.33s-4.33 1.94-4.33 4.33V56c0 2.4 1.94 4.33 4.33 4.33s4.33-1.94 4.33-4.33V10.1z"></path><use xlink:href="#B" x="47.5"></use><path d="M147.1 38.28a4.31 4.31 0 1 0-8.62 0v9.06a4.31 4.31 0 1 0 8.62 0v-9.06zm23.76-11.9a4.31 4.31 0 1 0-8.62 0v20.94a4.31 4.31 0 1 0 8.62 0V26.38zM194.6 10.1a4.313 4.313 0 1 0-8.61-.53c-.01.18-.01.35 0 .53V56a4.313 4.313 0 1 0 8.61.53c.01-.18.01-.35 0-.53V10.1zm23.77 16.28a4.35 4.35 0 0 0-4.6-4.07 4.34 4.34 0 0 0-4.07 4.07v20.94a4.35 4.35 0 0 0 4.6 4.07 4.34 4.34 0 0 0 4.07-4.07V26.38zm23.73 11.9a4.31 4.31 0 1 0-8.62 0v9.05a4.31 4.31 0 1 0 8.62 0v-9.05z"></path></g><g fill="#055174"><path d="M65.52 207.8v-14.64h5.52c.97 0 1.7.05 2.23.14.72.12 1.32.35 1.8.68.5.34.88.8 1.17 1.4.3.6.44 1.27.44 2 0 1.25-.4 2.3-1.2 3.16s-2.22 1.3-4.3 1.3h-3.76v5.95H65.5zm1.94-7.68h3.8c1.25 0 2.14-.23 2.67-.7s.8-1.12.8-1.97c0-.6-.15-1.14-.46-1.57a2.16 2.16 0 0 0-1.22-.86c-.33-.1-.93-.13-1.8-.13H67.5v5.23zm11.44 7.68v-14.64h1.8v14.64h-1.8zm11.5-1.32c-.67.57-1.3.97-1.92 1.2a5.65 5.65 0 0 1-1.98.35c-1.17 0-2.06-.28-2.7-.85s-.94-1.3-.94-2.18c0-.52.12-1 .35-1.42a2.89 2.89 0 0 1 .93-1.03c.38-.26.8-.46 1.3-.6.35-.1.9-.18 1.6-.27 1.45-.17 2.52-.38 3.2-.62l.01-.47c0-.73-.17-1.25-.5-1.55-.46-.4-1.14-.6-2.05-.6-.85 0-1.47.15-1.87.44-.4.3-.7.82-.9 1.57l-1.76-.24c.16-.75.42-1.36.8-1.82s.9-.82 1.6-1.07 1.5-.38 2.4-.38 1.64.1 2.2.32.98.48 1.25.8.45.73.56 1.22c.06.3.1.86.1 1.66v2.4l.1 3.17a4.19 4.19 0 0 0 .45 1.27h-1.88c-.2-.36-.3-.8-.36-1.3zm-.15-4c-.65.27-1.63.5-2.94.68-.74.1-1.26.23-1.57.36s-.54.33-.7.58a1.51 1.51 0 0 0-.25.85 1.54 1.54 0 0 0 .54 1.2c.36.32.9.48 1.6.48s1.3-.15 1.85-.45a2.79 2.79 0 0 0 1.19-1.24c.2-.4.3-1 .3-1.8v-.66zm8.53 3.7l.26 1.6c-.5.1-.96.16-1.36.16-.65 0-1.16-.1-1.52-.3s-.6-.48-.76-.8c-.15-.34-.22-1.04-.22-2.12v-6.1h-1.32v-1.4h1.32v-2.63l1.8-1.08v3.7h1.8v1.4h-1.8v6.2c0 .5.03.84.1 1a.75.75 0 0 0 .31.35c.14.1.35.13.6.13a7.9 7.9 0 0 0 .8-.08zm1.77-10.96v-2.07h1.8v2.07h-1.8zm0 12.57v-10.6h1.8v10.6h-1.8zm4.53.01v-10.6h1.62v1.5c.78-1.17 1.9-1.75 3.38-1.75.64 0 1.23.12 1.76.34s.94.53 1.2.9c.27.37.45.82.56 1.33.07.33.1.92.1 1.75v6.52h-1.8v-6.45c0-.73-.07-1.28-.2-1.64a1.78 1.78 0 0 0-.74-.87c-.36-.22-.77-.33-1.25-.33-.77 0-1.43.24-1.98.73-.56.5-.83 1.4-.83 2.77v5.8h-1.8zm18.32 0v-1.56c-.83 1.2-1.95 1.8-3.37 1.8a4.28 4.28 0 0 1-1.75-.36c-.55-.24-.95-.54-1.2-.9a3.42 3.42 0 0 1-.55-1.33c-.07-.35-.1-.9-.1-1.68v-6.57h1.8v5.88c0 .94.04 1.57.1 1.9.1.47.35.84.72 1.1s.82.4 1.36.4a3.11 3.11 0 0 0 1.52-.4 2.24 2.24 0 0 0 1-1.13c.2-.48.3-1.17.3-2.07v-5.68h1.8v10.6h-1.6zm4.43 0v-10.6h1.6v1.5c.33-.52.78-.94 1.33-1.25s1.18-.47 1.9-.47c.8 0 1.43.16 1.93.5s.86.78 1.06 1.37c.84-1.24 1.93-1.86 3.28-1.86 1.05 0 1.86.3 2.43.87s.85 1.48.85 2.7v7.28h-1.8v-6.68c0-.72-.06-1.24-.17-1.55-.12-.32-.33-.57-.63-.76-.3-.2-.67-.3-1.08-.3-.75 0-1.37.25-1.86.74-.5.5-.74 1.3-.74 2.38v6.16h-1.8v-6.9c0-.8-.15-1.4-.44-1.8s-.77-.6-1.44-.6a2.56 2.56 0 0 0-1.4.4 2.27 2.27 0 0 0-.93 1.17c-.2.5-.3 1.25-.3 2.22v5.5h-1.8zm22.87 0v-14.64h1.94v12.9h7.2v1.73h-9.15zm18.5-3.42l1.86.23c-.3 1.1-.84 1.93-1.63 2.53s-1.8.9-3.04.9c-1.55 0-2.78-.48-3.7-1.43-.9-.96-1.36-2.3-1.36-4.02 0-1.78.46-3.17 1.38-4.15s2.1-1.48 3.58-1.48c1.42 0 2.58.48 3.48 1.45s1.35 2.32 1.35 4.08l-.01.48h-7.9c.07 1.17.4 2.06 1 2.68a2.95 2.95 0 0 0 2.22.93c.66 0 1.22-.17 1.7-.52.45-.37.82-.92 1.1-1.68zm-5.9-2.9h5.92c-.08-.9-.3-1.56-.68-2a2.71 2.71 0 0 0-2.23-1.04c-.83 0-1.52.28-2.08.83-.56.56-.87 1.3-.93 2.22zm16.93 5c-.67.57-1.3.97-1.92 1.2a5.65 5.65 0 0 1-1.98.35c-1.17 0-2.06-.28-2.7-.85s-.94-1.3-.94-2.18c0-.52.12-1 .35-1.42a2.89 2.89 0 0 1 .93-1.03c.38-.26.8-.46 1.3-.6.35-.1.9-.18 1.6-.27 1.45-.17 2.52-.38 3.2-.62l.01-.47c0-.73-.17-1.25-.5-1.55-.46-.4-1.14-.6-2.05-.6-.85 0-1.47.15-1.87.44-.4.3-.7.82-.9 1.57l-1.76-.24c.16-.75.42-1.36.8-1.82s.9-.82 1.6-1.07 1.5-.38 2.4-.38 1.64.1 2.2.32.98.48 1.25.8.45.73.56 1.22c.06.3.1.86.1 1.66v2.4l.12 3.17a4.19 4.19 0 0 0 .45 1.27h-1.88c-.2-.36-.32-.8-.37-1.3zm-.15-4c-.65.27-1.63.5-2.94.68-.74.1-1.26.23-1.57.36s-.54.33-.7.58a1.51 1.51 0 0 0-.25.85 1.54 1.54 0 0 0 .54 1.2c.36.32.9.48 1.6.48s1.3-.15 1.85-.45a2.79 2.79 0 0 0 1.19-1.24c.2-.4.3-1 .3-1.8v-.66z"></path><use xlink:href="#C"></use><use xlink:href="#D"></use><path d="M202.88 195.22v-2.07h1.8v2.07h-1.8zm0 12.57v-10.6h1.8v10.6h-1.8z"></path><use xlink:href="#D" x="15.92"></use><path d="M218.46 208.67l1.75.26c.07.54.28.93.6 1.18.45.33 1.05.5 1.83.5.83 0 1.47-.17 1.93-.5.45-.33.76-.8.92-1.4.1-.37.14-1.13.13-2.3-.8.93-1.76 1.4-2.94 1.4-1.46 0-2.6-.53-3.4-1.58s-1.2-2.3-1.2-3.8c0-1 .18-1.95.55-2.8.37-.86.9-1.52 1.6-1.98.7-.47 1.5-.7 2.45-.7 1.25 0 2.28.5 3.1 1.52v-1.28h1.66v9.17c0 1.65-.17 2.82-.5 3.5-.34.7-.87 1.23-1.6 1.63s-1.63.6-2.7.6c-1.27 0-2.3-.28-3.07-.85s-1.16-1.42-1.13-2.57zm1.5-6.37c0 1.4.28 2.4.83 3.05s1.25.96 2.08.96a2.67 2.67 0 0 0 2.08-.95c.56-.64.84-1.63.84-3 0-1.3-.3-2.28-.86-2.94s-1.27-1-2.08-1c-.8 0-1.48.32-2.04.97s-.85 1.6-.85 2.9zm16.12 5.5v-14.64h5.52c.97 0 1.7.05 2.23.14.72.12 1.32.35 1.8.68.5.34.88.8 1.17 1.4.3.6.44 1.27.44 2 0 1.25-.4 2.3-1.2 3.16s-2.22 1.3-4.3 1.3H238v5.95h-1.93zm1.94-7.68h3.8c1.25 0 2.14-.23 2.67-.7s.8-1.12.8-1.97c0-.6-.16-1.14-.46-1.57a2.16 2.16 0 0 0-1.22-.86c-.33-.1-.93-.13-1.8-.13h-3.75v5.23zm18.38 6.36c-.67.57-1.3.97-1.92 1.2a5.65 5.65 0 0 1-1.98.35c-1.17 0-2.06-.28-2.7-.85s-.94-1.3-.94-2.18c0-.52.12-1 .35-1.42a2.89 2.89 0 0 1 .93-1.03c.38-.26.8-.46 1.3-.6.35-.1.88-.18 1.6-.27 1.45-.17 2.52-.38 3.2-.62l.01-.47c0-.73-.17-1.25-.5-1.55-.46-.4-1.14-.6-2.05-.6-.85 0-1.47.15-1.87.44-.4.3-.7.82-.9 1.57l-1.76-.24c.16-.75.42-1.36.8-1.82s.9-.82 1.6-1.07 1.5-.38 2.4-.38 1.64.1 2.2.32.98.48 1.25.8.45.73.56 1.22c.06.3.1.86.1 1.66v2.4l.12 3.17a4.19 4.19 0 0 0 .45 1.27h-1.88c-.2-.36-.3-.8-.37-1.3zm-.15-4c-.65.27-1.63.5-2.94.68-.74.1-1.26.23-1.57.36s-.54.33-.7.58a1.51 1.51 0 0 0-.25.85 1.54 1.54 0 0 0 .54 1.2c.36.32.9.48 1.6.48s1.3-.15 1.85-.45a2.79 2.79 0 0 0 1.19-1.24c.2-.4.3-1 .3-1.8v-.66z"></path><use xlink:href="#C" x="76.19"></use><path d="M271.6 206.18l.26 1.6c-.5.1-.96.16-1.36.16-.65 0-1.16-.1-1.52-.3s-.6-.48-.76-.8c-.15-.34-.22-1.04-.22-2.12v-6.1h-1.32v-1.4H268v-2.63l1.8-1.08v3.7h1.8v1.4h-1.8v6.2c0 .5.03.84.1 1a.75.75 0 0 0 .31.35c.14.1.35.13.6.13.2-.01.47-.03.8-.08z"></path><use xlink:href="#D" x="81.86"></use><path d="M292 204.38l1.86.23c-.3 1.1-.83 1.93-1.63 2.53-.8.6-1.8.9-3.04.9-1.55 0-2.78-.48-3.7-1.43s-1.36-2.3-1.36-4.02c0-1.78.46-3.17 1.38-4.15.92-1 2.1-1.48 3.58-1.48 1.42 0 2.58.48 3.48 1.45s1.35 2.32 1.35 4.08l-.01.48H286c.07 1.17.4 2.06 1 2.68s1.33.93 2.22.93c.66 0 1.22-.17 1.7-.52.46-.37.83-.92 1.1-1.68zm-5.9-2.9h5.92c-.08-.9-.3-1.56-.68-2-.57-.7-1.32-1.04-2.23-1.04-.83 0-1.52.28-2.08.83s-.87 1.3-.93 2.22z"></path><use xlink:href="#C" x="111.44"></use></g><defs><path id="B" d="M75.88 26.38c-.15-2.4-2.2-4.2-4.6-4.05-2.18.13-3.92 1.87-4.05 4.05v20.94a4.33 4.33 0 0 0 4.05 4.59 4.33 4.33 0 0 0 4.59-4.05c.01-.18.01-.35 0-.53V26.38z"></path><path id="C" d="M184.66 207.8v-10.6h1.62v1.6c.4-.75.8-1.25 1.14-1.5s.73-.36 1.15-.36c.6 0 1.22.2 1.85.58l-.62 1.67c-.44-.26-.88-.4-1.32-.4a1.75 1.75 0 0 0-1.06.35c-.3.24-.54.56-.67.98-.2.64-.3 1.34-.3 2.1v5.55h-1.8z"></path><path id="D" d="M191.5 207.8v-10.6h1.62v1.5c.78-1.17 1.9-1.75 3.38-1.75.64 0 1.23.12 1.76.34.54.23.94.53 1.2.9.27.37.45.82.56 1.33.07.33.1.92.1 1.75v6.52h-1.8v-6.45c0-.73-.07-1.28-.2-1.64a1.78 1.78 0 0 0-.74-.87c-.36-.22-.77-.33-1.25-.33-.77 0-1.43.24-1.98.73-.56.5-.83 1.4-.83 2.77v5.8h-1.8z"></path></defs></svg>