<svg xmlns="http://www.w3.org/2000/svg" id="Layer_1" data-name="Layer 1" viewBox="0 0 1181 942"><defs><style>.cls-1{fill:#09568c;}.cls-2{fill:#fff;}.cls-3,.cls-4{fill:none;}.cls-3{stroke:#8fc640;}.cls-3,.cls-4,.cls-5{stroke-miterlimit:10;stroke-width:2px;}.cls-4,.cls-5{stroke:#4b8dc1;}.cls-5,.cls-6{fill:#0a568c;}.cls-7{fill:#32b0ce;}.cls-8{fill:#2a69a5;}</style></defs><path class="cls-1" d="M227.6,435.5H912.2V746H227.6Z"></path><path class="cls-2" d="M539.4,476.7H491.7l2.9-8.1h44.8Zm-126.8-8.1h44.3l2.7,8.1h-47Zm-35.1,0a32,32,0,0,1,19,8.1h-80v-8.1Zm-123.9,0h55.7v8.2H253.6Zm285.8,23.5H486.5l2.7-8.2h50.2Zm-74.4.2H412.6v-8.4h49.7Zm-62.1-8.4a23.2,23.2,0,0,1,2.2,8.2H316.5v-8.2Zm-149.3,0h55.7v8.2H253.6Zm227.3,23.8,2.9-8.4,39.8.2v8.2Zm-13.2-8.4,2.8,8.4H428.2v-8.4Zm-61.9,0a34.6,34.6,0,0,1-1.1,8.4H380.5v-8.4Zm-136.8.2h24v8.2H269Zm63.6-.2h23.9v8.2H332.6Zm119.1,17.2c.1,2,.1,4.1,0,6.1H428.4v-8.2h44.8l2.7,7.7,2.7-7.7h45.2v8.2H500.3v-6.1l-2.3,6.1H454Zm-119.1-2.1h68.5a25.7,25.7,0,0,1-6.8,8.2H332.6Zm-63.6,0h24v8.2H269Zm231.3,15.4h23.3V538H500.3Zm-48.6,0H428.4V538h23.5l-.2-8.2Zm43.9,0-2.8,8.2H459.4l-3-8.2Zm-163,0h61.7a51,51,0,0,1,7.2,8.2H332.6ZM293,538v-8.2H269.2V538Zm207.3,7.2h23.3v8.1H500.3Zm-72.1,0h23.5v8.1H428.2Zm59,8.1,2.9-8.1H461.9l2.9,8.1Zm-154.6,0v-8.1h24.1v8.1Zm72.3-8.1a25.4,25.4,0,0,1,1.6,8.1H380.7v-8.1Zm-135.7,0h24v8.1h-24Zm231.1,15.1h39.1v8.2H500.3Zm-87.7,0h39.1v8.2H412.6Zm69.4,8.2H470l-2.9-8.2h17.6Zm-228.4-8.2v8.2h55.7v-8.2Zm151.7,0a15.1,15.1,0,0,1-2.9,8.2H316.5v-8.2Zm71.3,23.6h-1.2l-2.7-8.2h6.6Zm23.7-8.2h39.1v8.2H500.3Zm-183.8,8.2v-8.2H397a29.8,29.8,0,0,1-20.8,8.2H316.5m96.1-8.2h39.1v8.2H412.6Zm-103.3,0v8.2H253.6v-8.2Z"></path><path class="cls-3" d="M772,538.2l-35.9,21.7v62.4l53.8,31.4,53.6-31.2V559.9l-34.8-21.7M789.7,438v67"></path><path class="cls-3" d="M807.1,438v58.4M770,519.9l-50.4,30.3v78.6l70.5,44.1,70.1-41.3V549.5l-51.3-29.6m15.8-9.7,35.5,20.3,34.6-19.4m16.7,9.2L861.4,549l-.3,82.3,50.4,30.3m0-18.7-35-21.1.2-62.1L912,539.1"></path><path class="cls-1" d="M844.8,621.2l-2.4-1.6V603.5l2.7,1.2Z"></path><path class="cls-4" d="M719.8,438v29.2l-70.3,41.6v81.8l70.3,40.7L789,591.5V508.8l-69.2-41.6M736.1,438v20.6l51.3,29.8M737.9,601.7l36.2-21V518.5l-54.7-31.2-53.4,31v63.3l51.8,30.7M844.4,438v20.2L810,479.4m67.6-20.8V438m-16.9,0v29.7l-70.1,41.1v82.5l70.1,40L912,602.6V497.7l-51.3-30"></path><path class="cls-4" d="M910,515.4l-49.3-28.1-54.1,31.2v62.9l51.8,30.7"></path><path class="cls-5" d="M879.4,602.2,912,584.5"></path><path class="cls-1" d="M281,825.5l-.7-4.5a17.5,17.5,0,0,1-3.8,3.4,11.1,11.1,0,0,1-3.9,1.6l-4.3.4a12.9,12.9,0,0,1-5.8-1.3,17.3,17.3,0,0,1-5-3.9,21.7,21.7,0,0,1-3.6-5.8,36,36,0,0,1-1.2-8,21.9,21.9,0,0,1,.3-3.6,23.6,23.6,0,0,1,.9-3.6,16.6,16.6,0,0,1,8.8-9.9,20.2,20.2,0,0,1,7.7-1.4h1.3l3.7.5,3.6,1.3a16.2,16.2,0,0,1,4.9,4.5l1.4,2.8a5.9,5.9,0,0,1,.7,2.9h-7.5a7.1,7.1,0,0,0-1.1-2.5,12.7,12.7,0,0,0-2.7-2.5,11.6,11.6,0,0,0-4.1-.9h-3.4a14.5,14.5,0,0,0-3.4,2,13.3,13.3,0,0,0-2.5,4.1,22.8,22.8,0,0,0-.9,6.3,18.4,18.4,0,0,0,1.2,6.6,10.6,10.6,0,0,0,2.9,4.1l4.5,1.6h1.4a10.9,10.9,0,0,0,4-.7,9.6,9.6,0,0,0,5-7.3h-8.3v-5.8H286v19.2Zm12.2,0V789.8h7v35.7Zm38-6.1a12.1,12.1,0,0,1-4.5,5,15.2,15.2,0,0,1-7.3,1.8,14.8,14.8,0,0,1-7.9-2,12.1,12.1,0,0,1-4.3-5.2,16.1,16.1,0,0,1-1.3-6.8,18.1,18.1,0,0,1,.7-5.2,13.1,13.1,0,0,1,2.4-4.5,11.3,11.3,0,0,1,4.3-3.2,21.8,21.8,0,0,1,6.1-1.1,14.6,14.6,0,0,1,5.5,1.1,9.8,9.8,0,0,1,4.3,2.7,20.7,20.7,0,0,1,2.7,4.5,13.9,13.9,0,0,1,.9,5.7A14.9,14.9,0,0,1,331.2,819.4Zm-7-12.9a5,5,0,0,0-4.8-2.2,5.8,5.8,0,0,0-5.2,2.2,12.5,12.5,0,0,0,0,11.3,5.6,5.6,0,0,0,5.2,2.5,4.9,4.9,0,0,0,4.8-2.5,13.4,13.4,0,0,0,1.6-5.6A11.7,11.7,0,0,0,324.2,806.5Zm38,13.4a11.9,11.9,0,0,1-3.9,4.7,13.9,13.9,0,0,1-5.6,1.6h-2.3l-2.2-.9a6.5,6.5,0,0,1-3.2-2.9v3.4h-7v-36h7v12.7a8.6,8.6,0,0,1,3.6-3.2,9.2,9.2,0,0,1,4.3-1.1,8.6,8.6,0,0,1,5.9,2,9.6,9.6,0,0,1,3.6,4.8,14.1,14.1,0,0,1,1.3,7,17.9,17.9,0,0,1-1.5,7.9Zm-7-13.4a5.2,5.2,0,0,0-4.6-2.2c-3.8,0-5.8,2.9-5.8,8.6a8.7,8.7,0,0,0,1.5,5.4,5.1,5.1,0,0,0,4.6,2,4.2,4.2,0,0,0,4.3-2.5,11.1,11.1,0,0,0,1.3-5.4,12.4,12.4,0,0,0-1.3-5.9Zm29.6,19a.9.9,0,0,1-.3-.6h0v-.5a11,11,0,0,1-.2-1.8l-2.5,2a6.6,6.6,0,0,1-2.7,1.2,8.5,8.5,0,0,1-3.1.6,10,10,0,0,1-3.9-.6,9.6,9.6,0,0,1-3.2-2.5,9,9,0,0,1-1.3-4.5,7.6,7.6,0,0,1,2.3-6.2,9.9,9.9,0,0,1,5.4-2.4l6.5-.9c1.4-.3,2.3-.9,2.3-1.9a4.2,4.2,0,0,0-4.3-3.3,4.6,4.6,0,0,0-3.2.9,3.9,3.9,0,0,0-1.3,2.9h-6.8a11.3,11.3,0,0,1,1.6-5.4,9.5,9.5,0,0,1,3.6-3l2.9-.6,3.2-.5A12.9,12.9,0,0,1,387,800a6.5,6.5,0,0,1,3.2,2.9,8.8,8.8,0,0,1,.7,3.2v14.5a8.2,8.2,0,0,0,.2,2.7,2,2,0,0,0,1.4,1.3v1.2Zm-.9-13.1a7.2,7.2,0,0,1-2.7,1.2l-3.2.6a5.4,5.4,0,0,0-2.7,1.4,3.8,3.8,0,0,0-.9,2.5,2.7,2.7,0,0,0,.9,2.2,2.9,2.9,0,0,0,2.5.9h1.3l1.4-.4a5,5,0,0,0,2.2-1.6,5.3,5.3,0,0,0,1.2-2.9Zm13.8,13.1V789.8h7v35.7Zm42.5-29.4v29.4h-7.5V796.1H421.9v-6.3H451v6.3Zm28,9.3c-4.3,0-6.6,2-6.6,6.3v13.8h-7V799.1h6.8v4.5h.2a9.2,9.2,0,0,1,1.6-2.7,4.6,4.6,0,0,1,2.1-1.8,9.5,9.5,0,0,1,3.4-.9H470v7Zm21.5,20.1a.9.9,0,0,1-.3-.6h0v-.5a11,11,0,0,1-.2-1.8l-2.5,2a6.6,6.6,0,0,1-2.7,1.2,8.5,8.5,0,0,1-3.1.6,10,10,0,0,1-3.9-.6,8.4,8.4,0,0,1-3.1-2.5,6.7,6.7,0,0,1-1.4-4.5,7.6,7.6,0,0,1,2.3-6.2,9.9,9.9,0,0,1,5.4-2.4l6.5-.9c1.4-.3,2.3-.9,2.3-1.9a4.2,4.2,0,0,0-4.3-3.3,4.6,4.6,0,0,0-3.2.9,3.9,3.9,0,0,0-1.3,2.9h-6.8a11.3,11.3,0,0,1,1.6-5.4,9.5,9.5,0,0,1,3.6-3l2.9-.6,3.2-.5a12.9,12.9,0,0,1,7.2,1.6,6.5,6.5,0,0,1,3.2,2.9,8.8,8.8,0,0,1,.7,3.2v14.5a8.2,8.2,0,0,0,.2,2.7,2,2,0,0,0,1.4,1.3v1.2Zm-.9-13.1a7.2,7.2,0,0,1-2.7,1.2l-3.2.6a5.4,5.4,0,0,0-2.7,1.4,3.8,3.8,0,0,0-.9,2.5,2.7,2.7,0,0,0,.9,2.2,3,3,0,0,0,2.5.9H484l1.4-.4a5,5,0,0,0,2.2-1.6,5.3,5.3,0,0,0,1.2-2.9Zm13.1-16.5v-6.5h7v6.5Zm0,29.6V799.1h7v26.4Z"></path><path id="B" class="cls-1" d="M532.4,825.5v-16a9,9,0,0,0-.7-3.9,4.4,4.4,0,0,0-3.8-1.3,4.6,4.6,0,0,0-4.1,1.6,7.2,7.2,0,0,0-1.3,4.5v15.1h-7.1V799.1h6.8v3.8a8.5,8.5,0,0,1,7.9-4.7,10.5,10.5,0,0,1,5,1.1,7.1,7.1,0,0,1,3.2,3.2,8.6,8.6,0,0,1,1.1,4.7v18.3Z"></path><path class="cls-1" d="M546,795.9v-6.5h7v6.5Zm0,29.6V799.1h7v26.4Z"></path><path id="B-2" data-name="B" class="cls-1" d="M576.5,825.5v-16a10.7,10.7,0,0,0-.7-3.9,6.1,6.1,0,0,0-7.9.3,8,8,0,0,0-1.4,4.5v15.1h-7V799.1h6.8v3.8a8.5,8.5,0,0,1,7.9-4.7,10.5,10.5,0,0,1,5,1.1,7.1,7.1,0,0,1,3.2,3.2,8.6,8.6,0,0,1,1.1,4.7v18.3Z"></path><path class="cls-1" d="M612.9,830.7a6.9,6.9,0,0,1-4.1,4.1,20.4,20.4,0,0,1-8.1,1.4,19.9,19.9,0,0,1-4.8-.7,9.6,9.6,0,0,1-4.5-2.5,5.3,5.3,0,0,1-1.6-2,12.6,12.6,0,0,1-.4-2.8h7.4a3.4,3.4,0,0,0,1.4,2.1,8.1,8.1,0,0,0,7-.2,6.5,6.5,0,0,0,1.6-2.1h0a2.9,2.9,0,0,0,.2-.9,3.7,3.7,0,0,0,.2-1.8v-3.2a7.2,7.2,0,0,1-7,4.1,15.5,15.5,0,0,1-5.6-1.1,9.9,9.9,0,0,1-4.3-4.5,16.9,16.9,0,0,1-1.6-8,16.2,16.2,0,0,1,1.1-6.5,12.5,12.5,0,0,1,3.6-5.2,12.1,12.1,0,0,1,6.4-2,7.9,7.9,0,0,1,4.5,1.3,6.6,6.6,0,0,1,3.2,3.4v-3.8h6.7v25.1a14.4,14.4,0,0,1-1.3,5.8Zm-7.2-24.2a4.5,4.5,0,0,0-4.3-2.2,4.9,4.9,0,0,0-3.9,2,10.2,10.2,0,0,0-1.6,6.1,18.6,18.6,0,0,0,.5,3.4,5,5,0,0,0,1.8,2.7,4.7,4.7,0,0,0,3.2,1.2c3.8,0,5.8-2.5,5.8-7.7a8.2,8.2,0,0,0-1.5-5.5Zm50.1,2.8a10.8,10.8,0,0,1-8.5,3.1h-8.9v13.1H631V789.8h16.5a9.6,9.6,0,0,1,4.7.9,8.9,8.9,0,0,1,3.4,2.3,13.1,13.1,0,0,1,2.1,3.6,15.4,15.4,0,0,1,.6,4.3,13.4,13.4,0,0,1-2.5,8.4Zm-6.1-12c-.6-.9-2.4-1.4-5.2-1.4h-6.1v10.4h7a6.8,6.8,0,0,0,3.7-.7,2.7,2.7,0,0,0,1.5-1.8,8.3,8.3,0,0,0,.3-2.7,5.3,5.3,0,0,0-1.2-3.8Zm27.4,8.1c-4.3,0-6.6,2-6.6,6.3v13.8h-7V799.1h6.8v4.5l1.6-2.7a8.4,8.4,0,0,1,2.3-1.8,9.5,9.5,0,0,1,3.3-.9h1.4v7Zm29.8,14a12.6,12.6,0,0,1-4.7,5,13.1,13.1,0,0,1-7.2,1.8,13.7,13.7,0,0,1-7.7-2,12.8,12.8,0,0,1-4.6-5.2,17.9,17.9,0,0,1-1.3-6.8,13.3,13.3,0,0,1,.9-5.2,11.1,11.1,0,0,1,2.5-4.5,10.6,10.6,0,0,1,4.3-3.2,19.9,19.9,0,0,1,5.9-1.1,15.5,15.5,0,0,1,5.6,1.1,12.1,12.1,0,0,1,4.3,2.7,11.8,11.8,0,0,1,2.5,4.5,14.1,14.1,0,0,1,1.1,5.7A16.1,16.1,0,0,1,706.9,819.4Zm-7-12.9a6.6,6.6,0,0,0-9.2-.7l-.7.7a12.5,12.5,0,0,0,0,11.3,6.3,6.3,0,0,0,8.9,1.1,5.2,5.2,0,0,0,1-1.1A12.5,12.5,0,0,0,699.9,806.5ZM728,824.4l-.5,1.1h-7.2L711,800v-.9h7.7l5.4,19.4,5.9-19.4h7.2Zm13.1-28.5v-6.5h7v6.5Zm0,29.6V799.1h7v26.4Zm30.9,0v-3.4l-1.8.5-2,1.6c0,.2-.4.4-.9.7h-1.1a5.5,5.5,0,0,1-1.8.6,11.3,11.3,0,0,1-5.7-1.5,13.6,13.6,0,0,1-4.1-4.8c-.4-1.2-.8-2.4-1.1-3.6a20.9,20.9,0,0,1-.4-4.3,22.4,22.4,0,0,1,.6-5.2,11.5,11.5,0,0,1,2.1-4.3,12.2,12.2,0,0,1,3.6-3.2,15.3,15.3,0,0,1,4.7-1.1,8.9,8.9,0,0,1,7.7,4.3v-12h7v35.7Zm-5.8-21.2a5,5,0,0,0-4.6,2.2,12.1,12.1,0,0,0-1.3,5.9,11.1,11.1,0,0,0,1.3,5.4,4.5,4.5,0,0,0,4.3,2.5,5.3,5.3,0,0,0,5.7-3.6,9.9,9.9,0,0,0,.7-3.8C772.3,807.2,770.2,804.3,766.2,804.3Zm23.7,9.7a7,7,0,0,0,1.6,5,6.7,6.7,0,0,0,4.7,1.6,8.9,8.9,0,0,0,2.8-.7,4.1,4.1,0,0,0,1.5-2.3h7.3a12.3,12.3,0,0,1-2.5,4.8,16.2,16.2,0,0,1-4.1,2.7,17.2,17.2,0,0,1-5,1.1c-8.8,0-13.1-5-13.3-14.5a14.6,14.6,0,0,1,1.4-6.5,9.4,9.4,0,0,1,4-5,14.3,14.3,0,0,1,7.3-2,11,11,0,0,1,7.2,2,13.7,13.7,0,0,1,4.1,5.4,20.2,20.2,0,0,1,1.1,7.3V814Zm9.3-8.6a4.9,4.9,0,0,0-3.6-1.3c-3,0-4.8,1.8-5.5,5.6H801A8.3,8.3,0,0,0,799.2,805.4Zm26.9,0c-4.3,0-6.6,2-6.6,6.3v13.8h-6.8V799.1h6.6v4.5h.2a9.2,9.2,0,0,1,1.6-2.7,4.9,4.9,0,0,1,2-1.8l3.4-.9h1.4v7Z"></path><path class="cls-2" d="M281.9,648.3a13.6,13.6,0,0,1-4.3,4.3,12.9,12.9,0,0,1-6.1,1.3H253.6V615.3h17.5a11.4,11.4,0,0,1,5.4,1.1,11.2,11.2,0,0,1,3.8,3.4,10.7,10.7,0,0,1,1.4,5.2,11,11,0,0,1-.7,3.6,8,8,0,0,1-1.8,2.7,5.4,5.4,0,0,1-2.7,1.8,15.6,15.6,0,0,1,5.2,3.2,8.2,8.2,0,0,1,1.8,5.4,12.7,12.7,0,0,1-1.6,6.6Zm-7.2-26.9a7.8,7.8,0,0,0-5.7-1.6h-9.9v11.8h10.1a7.8,7.8,0,0,0,5.5-1.6,5.7,5.7,0,0,0,1.8-3.9A6,6,0,0,0,274.7,621.4Zm1.8,16.5c-1.1-1.4-3.4-1.8-7-2H259.1v13.7h12a7.1,7.1,0,0,0,4-1.1,6,6,0,0,0,2.5-2.5,5.9,5.9,0,0,0,.7-2.9A7.5,7.5,0,0,0,276.5,637.9Zm32.1,16V651a14.2,14.2,0,0,1-4.5,3.2,18.6,18.6,0,0,1-5.2,1.1,7.3,7.3,0,0,1-5.9-2.5,9.3,9.3,0,0,1-2.3-6.1V625.5h4.8V646a6.1,6.1,0,0,0,1.3,4.1,6,6,0,0,0,3.4,1.1h1.2a9.2,9.2,0,0,0,7.2-8.6V625.5h4.7v28.4Zm33-3.6a7,7,0,0,1-3.8,3.4,13.5,13.5,0,0,1-5.9,1.1,14.6,14.6,0,0,1-7.7-1.5,6.9,6.9,0,0,1-3.4-3.9c0-.2-.2-.4-.2-.9h-.3v-.4a15.4,15.4,0,0,1-.4-3h4.5a6.7,6.7,0,0,0,1.6,4.1,9,9,0,0,0,5.9,1.8,11.2,11.2,0,0,0,4.7-1.1,3.6,3.6,0,0,0,1.8-3.4,2.7,2.7,0,0,0-1.1-2.5l-4.5-1.6-4.1-.9a10.9,10.9,0,0,1-3.8-1.4,6.5,6.5,0,0,1-3-2.2,6.6,6.6,0,0,1-1.1-3.6,8.1,8.1,0,0,1,1.4-5,8.5,8.5,0,0,1,3.8-3.2,16.5,16.5,0,0,1,5.4-.9,12.2,12.2,0,0,1,7,1.8,6.9,6.9,0,0,1,3.2,3.7,12.1,12.1,0,0,1,.7,3.3h-4.5c0-3.1-2.3-4.7-6.8-4.7h-2.3a4.6,4.6,0,0,0-2.3,1.4,3,3,0,0,0-1.1,2.4,3.5,3.5,0,0,0,.5,1.8l1.6,1,3.1.9,4.1,1.1h.2l1.8.4,2.3.9a9.5,9.5,0,0,1,3.1,2.5,6,6,0,0,1,1.2,3.6,7.5,7.5,0,0,1-1.6,5Zm8.1-29.6v-5.4h4.8v5.4Zm0,33.2v-28h4.8v28Zm31.5,0V636.5a10.1,10.1,0,0,0-1.4-5.4,4.7,4.7,0,0,0-4.3-1.8,6.7,6.7,0,0,0-4.1,1.1,7.2,7.2,0,0,0-2.7,3,10,10,0,0,0-1.1,4.5v16h-4.8V625.7h4.6v4l1.3-1.5a7.5,7.5,0,0,1,3.2-2.1,9.2,9.2,0,0,1,4.3-1.1,13.1,13.1,0,0,1,5.2,1.1,9.2,9.2,0,0,1,3.4,3.4,13.1,13.1,0,0,1,1.1,5.2v19.2Zm16.7-12.4a10.5,10.5,0,0,0,2,6.8,8.4,8.4,0,0,0,9.7,1.6,10.4,10.4,0,0,0,2.8-2.3,5.4,5.4,0,0,0,.9-2.5h4.9a13.2,13.2,0,0,1-1.5,3.9,8.5,8.5,0,0,1-3.7,3.8l-.9.7h-.9l-1.1.4-4.8.5a11.1,11.1,0,0,1-5.6-1.4,10.7,10.7,0,0,1-4.3-3.6,16.8,16.8,0,0,1-2.7-9.3c0-1.3.2-2.4.2-3.3a14.4,14.4,0,0,1,.9-3.4,12.9,12.9,0,0,1,3-5.2,11.9,11.9,0,0,1,4.3-3,11.7,11.7,0,0,1,4.9-1.1,11.4,11.4,0,0,1,4.1.7,10.7,10.7,0,0,1,3.6,2,12,12,0,0,1,2.5,3.4,21.7,21.7,0,0,1,2.3,10.9Zm15.1-7.2a11.7,11.7,0,0,0-1.5-2.7,6.7,6.7,0,0,0-5.9-2.3,6,6,0,0,0-3.9,1.1,8.9,8.9,0,0,0-2.9,3.2,14.3,14.3,0,0,0-.9,4.1h15.6A12.7,12.7,0,0,0,413,634.3Zm32.4,16a8.5,8.5,0,0,1-4.1,3.4,12.4,12.4,0,0,1-5.7,1.1,14.2,14.2,0,0,1-7.6-1.5,6.5,6.5,0,0,1-3.4-3.9l-.5-.9v-.4a10.3,10.3,0,0,1-.4-3h4.7a5.3,5.3,0,0,0,1.6,4.1c.9,1.1,2.9,1.6,5.9,1.8a10,10,0,0,0,4.5-1.1,3.6,3.6,0,0,0,1.8-3.4c0-1.2-.2-2.1-1.1-2.5l-4.3-1.6-4.3-.9a10.7,10.7,0,0,1-3.9-1.4,5.3,5.3,0,0,1-2.7-2.2,5.2,5.2,0,0,1-1.1-3.6,8.7,8.7,0,0,1,1.3-5,9.4,9.4,0,0,1,3.9-3.2,16.5,16.5,0,0,1,5.4-.9,11.6,11.6,0,0,1,6.8,1.8,7.3,7.3,0,0,1,3.2,3.7c.4,1.3.6,2.4.9,3.3h-4.8c0-3.1-2.2-4.7-6.5-4.7h-2.5l-2.3,1.4a2.7,2.7,0,0,0-.9,2.4,2.3,2.3,0,0,0,.5,1.8l1.5,1,3.2.9,3.9,1.1h.4l1.8.4,2.1.9a7.5,7.5,0,0,1,3.1,2.5,5.3,5.3,0,0,1,1.1,3.6,8.7,8.7,0,0,1-1.5,5Zm28,0a8.4,8.4,0,0,1-3.8,3.4,13.5,13.5,0,0,1-5.9,1.1,14.6,14.6,0,0,1-7.7-1.5,6.9,6.9,0,0,1-3.4-3.9l-.5-.9v-.4a7.8,7.8,0,0,1-.4-3h4.5a6.7,6.7,0,0,0,1.6,4.1c.9,1.1,2.9,1.6,5.9,1.8a10,10,0,0,0,4.5-1.1,3.8,3.8,0,0,0,2-3.4,2.5,2.5,0,0,0-1.3-2.5,17.2,17.2,0,0,0-4.3-1.6l-4.3-.9a9.3,9.3,0,0,1-3.6-1.4,6.1,6.1,0,0,1-3-2.2,6.6,6.6,0,0,1-1.1-3.6,8.1,8.1,0,0,1,1.4-5,8.5,8.5,0,0,1,3.8-3.2,16.5,16.5,0,0,1,5.4-.9,13.1,13.1,0,0,1,7,1.8,8.8,8.8,0,0,1,3.2,3.7,12.1,12.1,0,0,1,.7,3.3h-4.8c0-3.1-2-4.7-6.5-4.7h-2.3a4,4,0,0,0-2.2,1.4,2.9,2.9,0,0,0-1.2,2.4,3.5,3.5,0,0,0,.5,1.8l1.6,1,3.1.9,4.1,1.1h.2l1.8.4,2.3.9a6.4,6.4,0,0,1,2.9,2.5,4.6,4.6,0,0,1,1.4,3.6,7.5,7.5,0,0,1-1.6,5ZM282.1,685.6a8.8,8.8,0,0,1-3.8,4.3,13.9,13.9,0,0,1-6.6,1.8H259.5V708h-4.9V669.1h17.1a14.2,14.2,0,0,1,6.1,1.3,9,9,0,0,1,4.1,4.1,11.2,11.2,0,0,1,1.4,5.7A12.9,12.9,0,0,1,282.1,685.6Zm-11.9-12H259.5v13.6h10.4c5.5,0,7.9-2.3,7.9-7S275.4,673.6,270.2,673.6Zm42.2,34.8a3.7,3.7,0,0,1-4.4-3.1,2.8,2.8,0,0,1-.1-.9,13.9,13.9,0,0,1-4.5,3.1,11.1,11.1,0,0,1-10.2.2,11,11,0,0,1-3.2-2.9,7.3,7.3,0,0,1-1.1-3.8v-.7a5.5,5.5,0,0,1,.2-1.8l.7-2.1a9.2,9.2,0,0,1,3-2.9,12,12,0,0,1,5.8-1.8h5.9a5,5,0,0,0,2.3-.9,2.8,2.8,0,0,0,.9-2.3c0-3.4-2.1-4.9-6.6-4.9a7.2,7.2,0,0,0-4.7,1.3,4.5,4.5,0,0,0-1.6,4.1h-4.5a10,10,0,0,1,1.1-4.5,9.5,9.5,0,0,1,3.8-3.4,12,12,0,0,1,6.2-1.4,20,20,0,0,1,5.4.7,6.3,6.3,0,0,1,4,2.5,5.1,5.1,0,0,1,1.6,4v16.3a4.1,4.1,0,0,0,.3,1.6l1.1.7h1.8v3.4Zm-4.7-14.9a5.8,5.8,0,0,1-2.5.9l-5,.9a11.6,11.6,0,0,0-4.7,2,4,4,0,0,0-1.6,3.4c.2,3,1.8,4.3,5,4.3a12.4,12.4,0,0,0,3.8-.9,12,12,0,0,0,3.6-2.2,4.9,4.9,0,0,0,1.4-3.4Zm21.7-7.7a6.8,6.8,0,0,0-2.3,5.2v17h-4.7V679.7h4.5v4.8a10.2,10.2,0,0,1,3.6-4.1,9.5,9.5,0,0,1,5.7-1.4v5A13.3,13.3,0,0,0,329.4,685.8Zm17.8,23.3a8,8,0,0,1-4-1.1,4.8,4.8,0,0,1-1.8-3.4V684.2h-3.6v-4.7h3.6v-7.7h4.7v7.7h4.8v4.7h-4.8v17.9a4,4,0,0,0,.9,2c.2.5.7.5,1.4.7h2.5v4.3Zm27.9-1.1V690.6a10.7,10.7,0,0,0-1.4-5.5,4.5,4.5,0,0,0-4.3-2,8.7,8.7,0,0,0-4.1,1.1,8.3,8.3,0,0,0-3.8,7.5V708h-4.8V679.7h4.6v4.1l1.3-1.6,3-2.3a16.3,16.3,0,0,1,4.5-.9,10.5,10.5,0,0,1,5.2,1.2,6.5,6.5,0,0,1,3.1,3.4,8.5,8.5,0,0,1,1.4,5.2V708Zm16.5-12.7a10.3,10.3,0,0,0,2,7,9.6,9.6,0,0,0,6.3,2.3,6.2,6.2,0,0,0,3.6-.9,5.3,5.3,0,0,0,2.8-2.3,8.5,8.5,0,0,0,.9-2.2h4.7a9.3,9.3,0,0,1-1.4,3.8,11.9,11.9,0,0,1-3.6,3.8l-.9.7h-1.1l-.9.5a12.7,12.7,0,0,1-4.8.7,13,13,0,0,1-5.8-1.4,12.9,12.9,0,0,1-4.1-3.6,15.4,15.4,0,0,1-2.7-9.3,14.5,14.5,0,0,1,.2-3.6,19.2,19.2,0,0,1,.9-3.2,11.5,11.5,0,0,1,3-5.2,18.3,18.3,0,0,1,4.2-3.1,10.8,10.8,0,0,1,5-.9,11.3,11.3,0,0,1,4.1.6,8.1,8.1,0,0,1,3.4,2.1,9.1,9.1,0,0,1,2.7,3.4,24.1,24.1,0,0,1,2.3,10.6Zm15.1-7a4.7,4.7,0,0,0-1.4-2.7,6.6,6.6,0,0,0-5.8-2.5,6.2,6.2,0,0,0-3.9,1.4,6.7,6.7,0,0,0-2.9,3.1,10,10,0,0,0-1.1,4.1h15.8A8,8,0,0,0,406.7,688.3Zm20.4-2.5a6.7,6.7,0,0,0-2.5,5.2v17h-4.8V679.7h4.5v4.8a13.2,13.2,0,0,1,3.7-4.1,9,9,0,0,1,5.6-1.4v5a11.4,11.4,0,0,0-6.5,1.8Z"></path><path class="cls-6" d="M228.3,901.5H922.4v14.6H228.3Z"></path><path class="cls-7" d="M166.8,54.4H150.6l-6.3,24.7h7.9c9.6,0,17.4,6.3,15.2,17.1s-2.8,11-5.6,23.6c-3.5,14.3-10.1,18.9-22.4,22.8L50.4,172l-8.9,36.5,104.7-33.8c27.2-9.1,42.3-20.6,46.9-38.4a278,278,0,0,0,7.8-32.1C207.7,72.8,186.9,54.4,166.8,54.4Z"></path><path class="cls-7" d="M49.3,54.4h0L43.2,79.1H73.4L53.3,161l39.1-13.2L107.5,86c.5-3-3.3-6.9-3.3-6.9h30.7L141,54.4Z"></path><polygon class="cls-7" points="1127.9 271.7 1127.9 271.7 -0.5 259 -0.5 258.5 1117.3 258.5 1180.4 0 1181 0 1127.9 271.7"></polygon><path class="cls-8" d="M1102.7,65.4h0c1.6,0,3.3,0,3.3-2.5s-1.7-1.6-2.8-1.6h-2.7v4.1Zm-2.2,8h-2.2V59.6h4.9c3.4,0,5,1.1,5,3.9a3.2,3.2,0,0,1-3.3,3.5l3.9,6.4H1106l-3.3-5.8h-2.2Zm2.2,3.3h0c5.5,0,9.6-4.5,9.6-10.2s-4.1-10.4-9.6-10.4-9.6,4.6-9.6,10.4S1097.1,76.7,1102.7,76.7Zm-12.3-10.2h0a12.2,12.2,0,0,1,12.3-12.1,12.1,12.1,0,1,1,0,24.2A12.2,12.2,0,0,1,1090.4,66.5Z"></path><path class="cls-8" d="M405.7,84.1H390.1c-40.9,0-49.4,26.9-55.5,52.8-3.8,16.1-4.4,32.6,1.1,44.7s16.8,19.5,35.2,19.5h47l6.3-25.2H383.8c-17.8,0-25.8-3.9-19.5-28.6h66.5s2.2-9.9,4.4-17.3C440.9,107.2,429.7,84.1,405.7,84.1Zm3.4,43.7H369.3c3.8-17.3,9-21.2,21.9-21.2h3.3C414.6,106.6,409.1,127.8,409.1,127.8Z"></path><path class="cls-8" d="M652.4,112.9h0c-2.9,11.3-21.3,88.2-21.3,88.2h-33l20.6-83.7c1.9-7.5-1.6-10.2-7.7-10.2H583.5s3.9,3.8,3.3,7.4-21.1,86.5-21.1,86.5H533.2l32.5-133c1.1-6.8-5-13.7-5-13.7h40.7l-7.2,30.3h37.4C651.9,84.7,656.3,96.7,652.4,112.9Z"></path><path class="cls-8" d="M319,79.1h0s3.8,3.3,2.7,7.4-28,114.6-28,114.6H256.3l30.3-122H242.9l5.5-24.7H369.3l-6.1,24.7Z"></path><path class="cls-8" d="M778.2,54.4H696.1s6.1,6.3,5,13.7c-4.4,18.4-32.4,133-32.4,133h78.8c27.5,0,39.1-13.7,47-32.1s14.5-50.3,17.9-64.8C819.1,72.8,798.4,54.4,778.2,54.4Zm-.5,41.2h0c-2.2,10.4-11.8,48.1-14.5,61.3s-9.6,19-22.5,19H712.3S732.9,90.4,734,87.1s-3.3-8-3.3-8h31.9C772,79.1,780.5,85.4,777.7,95.6Z"></path><path class="cls-8" d="M893.4,84.7H834.3l-5.7,22.5h44.2c5.5,0,9.6,3.3,8.5,9.6l-1.7,5.2H855.4c-17.3,0-39.8,6.9-47,35.5a41.3,41.3,0,0,1-1,4.1,30.8,30.8,0,0,0-.6,7.4c0,18.4,16.3,32.1,31.3,32.1h54.7s17.5-72.8,21.4-88.2S913.1,84.7,893.4,84.7Zm-26.7,91.2H847.6c-8.9,0-16.8-3.4-13.3-17.1s11.6-15.6,20.1-15.6h20Z"></path><path class="cls-8" d="M1072.5,84.7h-59.4l-5.5,22.5h44.3c5.5,0,9.3,3.3,8.2,9.6l-1.6,5.2h-24c-17.4,0-39.8,6.9-47,35.5-.5,1.8-.5,2.9-1.2,4.1a30.8,30.8,0,0,0-.6,7.4c0,18.4,16.4,32.1,31.4,32.1h54.8s17.4-72.8,21.2-88.2S1092,84.7,1072.5,84.7Zm-26.9,91.2h-18.4c-9.5,0-17.3-3.4-14.1-17.1s11.8-15.6,20.4-15.6h20Z"></path><path class="cls-8" d="M477.2,136.9h0c5.7-22.3,15.1-29.7,28-29.7H541l5.7-23.1h-47c-40.3,0-49.4,26.9-54.9,52.8-3.9,16.1-5,32.6,1.1,44.7s16.8,19.5,35.2,19.5h37.6l5.5-25.2H492.9C473.4,175.9,471.7,159.3,477.2,136.9Z"></path><path class="cls-8" d="M959,175.9h17.3l-6.2,25.2H930.5c-6.9,0-14.1-5.7-11.3-17.8l18.5-76.1H923.1l5.6-22.5h14.7l2.1-9.1c1.7-6.3-5.1-13.8-5.1-13.8h40.9l-5.6,22.9h20.7l-5.5,22.5H965.1s3.9,3.8,3.3,7.4c-.5,1.6-10.5,43.6-13.5,54.4C954.4,172.5,954.4,175.9,959,175.9Z"></path><path class="cls-1" d="M925.8,728.3h-6.4v-1.7h14.8v1.7h-6.4V745h-2Z"></path><path class="cls-1" d="M956.4,726.6V745h-1.9V730.3l-7.2,12.4h-.9l-7.2-12.3V745h-1.9V726.6h1.6l8,13.6,7.9-13.6Z"></path></svg>