<svg xmlns="http://www.w3.org/2000/svg" xmlns:xlink="http://www.w3.org/1999/xlink" x="0px" y="0px" viewBox="0 0 3000 3000" style="enable-background:new 0 0 3000 3000;" xml:space="preserve"><style type="text/css">	.st0{display:none;}	.st1{display:inline;fill:#0C0C0C;}	.st2{display:none;fill:#FFFFFF;}	.st3{fill:#F4EBDF;}	.st4{fill:#5E5E5E;}	.st5{fill:#B59441;}</style><g id="Layer_2" class="st0">	<rect x="3194.87" y="34.37" class="st1" width="2964.88" height="1127.75"></rect></g><g id="Layer_3">	<rect x="0" y="0" class="st2" width="3000" height="3000"></rect>	<g id="Layer_4">	</g>	<rect x="-82.17" y="-82.17" class="st3" width="3164.34" height="3164.34"></rect>	<g>		<g>			<path class="st4" d="M386.62,1880.54l-33.38,75.7h13.12l7.21-16.3h37.51l7.21,16.3h13.12l-33.38-75.7H386.62z M406.03,1928.33    h-27.4l13.74-31.02L406.03,1928.33z"></path>			<polygon class="st4" points="490.4,1956.24 502.53,1956.24 502.53,1923.52 541.53,1923.52 541.53,1911.91 502.53,1911.91     502.53,1892.15 545.82,1892.15 545.82,1880.54 490.4,1880.54    "></polygon>			<path class="st4" d="M665.84,1905.49c0-14.23-12.2-24.95-28.38-24.95h-31.11v75.7h12.03v-25.82h16.08l18.19,25.82h14.03    l-19.14-27.32C658.61,1925.5,665.84,1916.39,665.84,1905.49z M653.71,1905.49c0,8.22-6.79,13.32-17.72,13.32h-17.6v-26.66h17.6    C646.92,1892.15,653.71,1897.27,653.71,1905.49z"></path>			<rect x="726.6" y="1880.54" class="st4" width="12.03" height="75.7"></rect>			<path class="st4" d="M858.33,1937.61c-5.09,5.4-11.97,8.49-18.88,8.49c-14.42,0-26.6-12.71-26.6-27.76    c0-14.99,12.19-27.64,26.6-27.64c6.9,0,13.78,3.09,18.88,8.49l1.38,1.47l8.29-8.45l-1.34-1.36c-7.33-7.45-16.99-11.55-27.2-11.55    c-20.99,0-38.73,17.88-38.73,39.04c0,21.22,17.74,39.16,38.73,39.16c9.94,0,19.86-4.21,27.19-11.53l1.35-1.36l-8.29-8.46    L858.33,1937.61z"></path>			<path class="st4" d="M954.36,1880.54l-33.38,75.7h13.12l7.21-16.3h37.51l7.21,16.3h13.12l-33.38-75.7H954.36z M973.77,1928.33    h-27.4l13.74-31.02L973.77,1928.33z"></path>			<path class="st4" d="M1168.5,1880.54h-26.19v75.7h26.19c23.65,0,40.82-15.94,40.82-37.9    C1209.33,1896.09,1192.54,1880.54,1168.5,1880.54z M1197.19,1918.34c0,15.67-11.8,26.61-28.69,26.61h-14.16v-53.1h14.16    C1185.4,1891.85,1197.19,1902.75,1197.19,1918.34z"></path>			<rect x="1272.69" y="1880.54" class="st4" width="12.03" height="75.7"></rect>			<path class="st4" d="M1385.56,1890.7c7.62,0,16.24,3.5,20.96,8.49l1.38,1.47l8.29-8.45l-1.34-1.36    c-6.8-6.9-18.57-11.55-29.29-11.55c-20.99,0-38.73,17.88-38.73,39.04c0,21.22,17.74,39.16,38.73,39.16    c10.61,0,22.38-4.63,29.28-11.53l0.57-0.58v-30.86h-32.62v11.61h20.59v14.23c-4.97,3.51-11.85,5.74-17.82,5.74    c-14.42,0-26.6-12.71-26.6-27.76C1358.95,1903.35,1371.14,1890.7,1385.56,1890.7z"></path>			<rect x="1479.82" y="1880.54" class="st4" width="12.03" height="75.7"></rect>			<polygon class="st4" points="1553.22,1892.15 1577.36,1892.15 1577.36,1956.24 1589.39,1956.24 1589.39,1892.15 1613.54,1892.15     1613.54,1880.54 1553.22,1880.54    "></polygon>			<path class="st4" d="M1695.03,1880.54l-33.38,75.7h13.12l7.21-16.3h37.51l7.21,16.3h13.12l-33.38-75.7H1695.03z M1714.45,1928.33    h-27.4l13.74-31.02L1714.45,1928.33z"></path>			<polygon class="st4" points="1809.7,1880.54 1797.67,1880.54 1797.67,1956.24 1848.9,1956.24 1848.9,1944.63 1809.7,1944.63        "></polygon>			<polygon class="st4" points="2043.41,1880.54 2021.89,1908.67 2000.37,1880.54 1985.46,1880.54 2014.44,1918.45 1985.45,1956.24     2000.26,1956.24 2021.79,1928.12 2043.3,1956.24 2058.21,1956.24 2029.24,1918.34 2058.22,1880.54    "></polygon>			<path class="st4" d="M2147.98,1880.54h-31.11v75.7h12.03v-25.82h19.07c16.18,0,28.38-10.72,28.38-24.93    C2176.36,1891.26,2164.16,1880.54,2147.98,1880.54z M2164.23,1905.49c0,8.22-6.79,13.32-17.72,13.32h-17.6v-26.66h17.6    C2157.44,1892.15,2164.23,1897.27,2164.23,1905.49z"></path>			<polygon class="st4" points="2236.49,1956.24 2291.9,1956.24 2291.9,1944.63 2248.62,1944.63 2248.62,1923.52 2287.61,1923.52     2287.61,1911.91 2248.62,1911.91 2248.62,1892.15 2291.9,1892.15 2291.9,1880.54 2236.49,1880.54    "></polygon>			<path class="st4" d="M2413.81,1905.49c0-14.23-12.2-24.95-28.38-24.95h-31.11v75.7h12.03v-25.82h16.07l18.19,25.82h14.03    l-19.14-27.32C2406.58,1925.5,2413.81,1916.39,2413.81,1905.49z M2401.68,1905.49c0,8.22-6.79,13.32-17.72,13.32h-17.6v-26.66    h17.6C2394.89,1892.15,2401.68,1897.27,2401.68,1905.49z"></path>			<polygon class="st4" points="2471.01,1892.15 2495.16,1892.15 2495.16,1956.24 2507.19,1956.24 2507.19,1892.15 2531.33,1892.15     2531.33,1880.54 2471.01,1880.54    "></polygon>			<path class="st4" d="M2621.75,1912.07c-12.34-2.95-17.85-5.25-17.85-11.08c0-5.8,6.02-10.5,13.43-10.5c6.72,0,13.37,3,19.25,8.66    l1.54,1.48l7.45-9.48l-1.32-1.21c-7.87-7.24-16.54-10.75-26.5-10.75c-14.81,0-25.98,9.64-25.98,22.42    c0,15.11,12.92,19.36,25.02,22.18c13.34,3.1,17.84,6.05,17.84,11.7c0,5.28-4.57,10.61-14.79,10.61c-8.43,0-15.47-3.1-22.15-9.79    l-1.53-1.51l-7.57,9.42l1.24,1.23c8.05,7.93,18.04,11.96,29.7,11.96c16.54,0,27.23-8.89,27.23-22.63    C2646.77,1919.97,2634.12,1914.99,2621.75,1912.07z"></path>		</g>		<g>			<path class="st4" d="M614.26,2111.94l4.01-4.99c4.74,4.74,10.55,8.1,18.41,8.1c8.67,0,13.09-4.75,13.09-9.82    c0-5.97-5.32-8.35-15.13-10.64c-11.29-2.62-18.41-6.14-18.41-15.87c0-8.99,8.01-16.03,18.81-16.03c8.34,0,14.56,3.27,19.72,8.01    l-3.93,5c-4.67-4.5-10.23-7.2-16.12-7.2c-6.95,0-12.02,4.58-12.02,9.74c0,5.8,5.56,7.85,15.13,10.14    c10.72,2.53,18.41,6.38,18.41,16.29c0,8.91-6.7,16.19-19.79,16.19C627.19,2120.86,619.91,2117.51,614.26,2111.94z"></path>			<path class="st4" d="M831.9,2091.82c0-15.79,13.25-29.03,28.79-29.03c15.62,0,28.71,13.24,28.71,29.03    c0,15.79-13.09,29.13-28.71,29.13C845.16,2120.95,831.9,2107.61,831.9,2091.82z M882.95,2091.82c0-12.51-10.14-23.14-22.25-23.14    c-12.11,0-22.33,10.64-22.33,23.14c0,12.6,10.23,23.24,22.33,23.24C872.81,2115.06,882.95,2104.42,882.95,2091.82z"></path>			<path class="st4" d="M1103.28,2113.91v6.05h-37.06v-56.2h6.38v50.15H1103.28z"></path>			<path class="st4" d="M1280.1,2096.65v-32.89h6.38v32.89c0,10.79,7.12,18.49,17.1,18.49c9.98,0,17.1-7.7,17.1-18.49v-32.89h6.38    v32.89c0,14.23-9.73,24.29-23.48,24.29C1289.84,2120.95,1280.1,2110.88,1280.1,2096.65z"></path>			<path class="st4" d="M1523.66,2069.81h-18.89v-6.05h44.17v6.05h-18.89v50.15h-6.38V2069.81z"></path>			<path class="st4" d="M1726.09,2063.76h6.38v56.2h-6.38V2063.76z"></path>			<path class="st4" d="M1910.18,2091.82c0-15.79,13.25-29.03,28.79-29.03c15.62,0,28.71,13.24,28.71,29.03    c0,15.79-13.09,29.13-28.71,29.13C1923.43,2120.95,1910.18,2107.61,1910.18,2091.82z M1961.22,2091.82    c0-12.51-10.14-23.14-22.25-23.14c-12.1,0-22.33,10.64-22.33,23.14c0,12.6,10.23,23.24,22.33,23.24    C1951.08,2115.06,1961.22,2104.42,1961.22,2091.82z"></path>			<path class="st4" d="M2146.63,2063.76h6.38l34.85,45.73v-45.73h6.38v56.2h-6.38l-34.85-45.73v45.73h-6.38V2063.76z"></path>			<path class="st4" d="M2372.7,2111.94l4.01-4.99c4.74,4.74,10.55,8.1,18.41,8.1c8.67,0,13.09-4.75,13.09-9.82    c0-5.97-5.32-8.35-15.13-10.64c-11.29-2.62-18.41-6.14-18.41-15.87c0-8.99,8.01-16.03,18.81-16.03c8.34,0,14.56,3.27,19.72,8.01    l-3.93,5c-4.67-4.5-10.23-7.2-16.12-7.2c-6.95,0-12.02,4.58-12.02,9.74c0,5.8,5.56,7.85,15.13,10.14    c10.72,2.53,18.41,6.38,18.41,16.29c0,8.91-6.7,16.19-19.79,16.19C2385.62,2120.86,2378.34,2117.51,2372.7,2111.94z"></path>		</g>		<g>			<g>				<path class="st5" d="M1173.12,1113.09H846.13l54.1,86.13h272.9c109.5,0,198.58,89.09,198.58,198.58     c0,109.49-89.08,198.56-198.58,198.56H977.4l-276.53-483.27l-347.63,569.39h488.9l-49.28-86.13h-286.8l188.4-321.08     l233.01,407.2h245.66c156.99,0,284.7-127.71,284.7-284.69S1330.11,1113.09,1173.12,1113.09z"></path>				<path class="st5" d="M2482.88,1352.38h-241.64c-42.88,0-77.76-34.89-77.76-77.77s34.88-77.75,77.76-77.75h362.46v-86.13h-362.46     c-90.37,0-163.88,73.51-163.88,163.88c0,90.37,73.52,163.89,163.88,163.89h241.64c42.88,0,77.76,34.87,77.76,77.75     s-34.88,77.75-77.76,77.75h-320.77l83.19,86.13h237.58c90.37,0,163.88-73.51,163.88-163.88S2573.25,1352.38,2482.88,1352.38z"></path>				<polygon class="st5" points="2096.37,1113.09 1976.93,1113.09 1802.61,1286.58 1865.17,1349.15     "></polygon>				<polygon class="st5" points="1404.81,1682.48 1538.7,1682.48 1708.49,1509.13 1643.9,1444.54     "></polygon>				<polygon class="st5" points="1175.86,879.05 2073.09,1776.3 2194.88,1776.3 1297.65,879.05     "></polygon>			</g>		</g>		<g>			<path class="st5" d="M1141.99,1618.38c0.22-29.87-0.84-59.89-5.97-89.31c-1.99-11.38-4.58-22.65-6.02-34.12    c-1.66-13.14-1.8-26.51-0.43-39.69c0.6-5.77,1.56-11.68,4.48-16.57c3.32-5.54,8.79-9.15,14.24-12.21    c15.66-8.8,32.75-14.7,50.28-17.36c10.09-1.53,21.02-2.44,30.9-5.22c-0.08-0.08-0.21-0.08-0.28-0.17    c-0.59-0.79-0.59-1.73-0.34-2.69c-2.38,0.37-4.78,0.66-7.16,0.7c-11.31,0.21-22.45-2.71-33.43-5.61    c-6.22-1.64-13.38-4.16-15.45-10.63c-1.45-4.55,0.21-9.47,1.62-14.03c1.75-5.65,3.01-11.45,4.02-17.3    c-3.63-0.42-7.26-0.85-10.89-1.27c-2.63,9.2-5.47,18.31-9.97,26.61c-10.14,18.7-28.54,32.05-48.57,35.21    c0.64-14.45-7.27-27.51-14.2-39.94c-2.63-4.73-5.18-9.76-7.13-14.95c-2.6-0.12-5.2-0.24-7.8-0.35c0.53,9.04,2.9,18.31,5.7,26.84    c5.62,17.1,12.75,35.06,8.91,52.71c-6.47-17.68-21.85-29.42-34.77-42.46c-6.75-6.82-13.11-15.09-17.08-24.04    c-2.95,1.68-5.89,3.32-8.94,4.43c0.99,4.71,2.74,9.23,5.45,13.11c3.58,5.13,8.5,9.33,10.84,15.22    c-16.87,4.42-35.62-0.27-48.89-12.23c-9.42-8.5-15.84-20.53-18.36-33.4c-2.27-0.27-4.53-0.24-6.72,0.06    c-1.27,5.87-1.82,11.92-1.54,17.93c-2.68-0.3-5.37-0.45-8.06-0.48c2.06,2.4,5.14,4.21,6.03,9.29c-0.27-0.04-0.53,0.01-0.8-0.02    c5.45,2.43,10.64,5.44,15.27,9.36c0.86-0.62,1.68-1.17,2.31-1.33c1.26-0.32,1.71,1.56,1.8,2.47c3.36-1.83,7.45-0.38,10.93,1.21    c4.91,2.23,9.75,4.64,14.51,7.22c2.67,1.45,5.7,3.61,5.58,6.81c-4.03-0.53-8.09-1.05-12.13-0.64c-2.02,0.21-4,0.62-6,1    c3.29,3.13,6.71,6.05,10.67,8.14c12.58,6.63,28.12,4.82,40.29,12.28c11.49,7.04,17.92,22.39,15.18,36.22    c-1.42,7.17-4.98,13.63-7.31,20.53c-3.94,11.64-4.3,24.27-4.51,36.64c-0.64,37.68-0.04,75.38,1.52,113.03h82.08    C1141.78,1632.4,1141.94,1625.44,1141.99,1618.38z"></path>			<path class="st5" d="M966.43,1377.11c-1.42-1.65-2.37-3.58-1.75-7.07c1.22-6.87,5.93-9.64,11.36-10.38    c1.21-5.58,3.08-11,5.62-16.05c-0.37,5.36,0.08,10.74,1.11,16c4.39,0.53,8.61,1.87,11.34,3.2c10.08,4.91,19.55,13.38,30.3,15.19    c3.33,0.56,6.38-0.01,9.32-1.08c-2.17-10.33-0.31-21.69,5.76-30.12c-2.09,8.78-0.45,17.52,3.17,25.69c2.65-1.51,5.33-3,8.16-4.05    c3.89-1.44,9.31,1.46,12.67-1.63c0.93-0.85,1.56-2.11,2.33-3.19c3.37-4.76,8.08-4.44,12.65-4.23c0.47,0.02,0.95,0.04,1.42,0.06    c-0.54-9.1,0.79-17.95,5.44-25.57c-2.38,8.6-0.82,17.47,2.36,25.93c2.23,0.1,4.45,0.2,6.68,0.3c4.86,0.22,12.67,2.59,17.26,0.34    c1.88-0.92,1.64-3.71,2.48-5.63c0.87-1.98,2.26-3.54,3.79-4.62c3.12-2.2,6.98-2.3,10.43-1.89c13.08,1.53,26.15,3.05,39.23,4.58    c1.44-5.04,2.83-10.1,4.35-15.09c0.51-1.69,1.2-3.55,2.72-4.25c3.66-1.67,5.82,4.51,5.46,8.74c-0.34,3.98-0.97,7.93-1.65,11.87    c7.23,0.84,14.46,1.69,21.69,2.53c12.18,1.42,38.5,13.16,45.53-7.13c0.7-2.02,1.13-4.31,2.28-5.91c1.6-2.22,4.12-2.5,6.41-2.64    c22.22-1.42,44.44-2.83,66.66-4.24c-0.63-11.33-11.1-15.58-19.41-17.15c-30.01-5.69-59.77-13.8-89.07-24.26    c-5.17-1.85-10.38-3.79-15.16-7.04c-2.82-1.92-5.5-4.29-8.47-5.75c-4.57-2.25-9.56-2.21-14.43-2.14    c-16.68,0.24-33.37,0.48-50.05,0.72c-9.23,0.13-18.85,0.15-27.11-5.42c-4.46-3.01-8.27-7.5-12.48-11.11    c-21.26-18.23-52.75-9.18-66.7,19.16c-1.31,2.66-2.5,5.48-4.23,7.64c-2.16,2.69-4.99,4.14-7.75,5.48    c-22.25,10.8-45.21,18.89-68.53,24.13c-6.72,1.51-14.93,4.53-16.34,13.55c-0.4,2.53-0.19,5.36-1.3,7.46    c-1.1,2.09-3.12,2.78-4.96,3.41c-17.47,6.05-33.01,21.7-42.32,42.6c17.19,4.93,35.27,9.83,52.09,2.93c2.92-1.2,5.78-2.74,8.8-3.3    c3.07-0.57,6.19-0.1,9.27,0.37c9.93,1.52,18.93-2.85,28.8-1.65c-9.65-4.31-20.15-6.47-30.58-5.51    C949.29,1378.27,957.86,1377.02,966.43,1377.11z"></path>			<path class="st5" d="M1039.48,1346.79c-6.07,8.42-7.93,19.79-5.76,30.12c3.05-1.11,5.98-2.75,8.94-4.43    C1039.03,1364.31,1037.39,1355.57,1039.48,1346.79z"></path>			<path class="st5" d="M1174.63,1333.54c-1.53,0.7-2.21,2.56-2.72,4.25c-1.52,4.99-2.91,10.05-4.35,15.09    c3.63,0.42,7.26,0.85,10.89,1.27c0.68-3.94,1.31-7.88,1.65-11.87C1180.45,1338.05,1178.29,1331.87,1174.63,1333.54z"></path>			<path class="st5" d="M981.65,1343.61c-2.54,5.05-4.4,10.47-5.62,16.05c2.19-0.3,4.46-0.33,6.72-0.06    C981.73,1354.35,981.28,1348.97,981.65,1343.61z"></path>			<path class="st5" d="M1085.32,1333.87c-4.64,7.62-5.97,16.48-5.44,25.57c2.6,0.12,5.2,0.24,7.8,0.35    C1084.51,1351.34,1082.94,1342.47,1085.32,1333.87z"></path>			<path class="st5" d="M966.43,1377.11c-8.56-0.1-17.14,1.15-25.35,3.76c10.43-0.96,20.93,1.2,30.58,5.51    c0.27,0.03,0.53-0.02,0.8,0.02C971.57,1381.32,968.49,1379.51,966.43,1377.11z"></path>			<path class="st5" d="M1229.47,1403.89c0.87,0.87,2.19,1.06,3.41,1.08c26.99,0.46,54-0.6,80.88-3.16c1.69-0.16,3.48-0.37,4.8-1.51    c1.48-1.28,2.01-3.43,3.21-5.02c2-2.65,5.46-3.33,8.62-3.76c8.16-1.13,16.36-1.86,24.58-2.2c3.86-0.16,7.97-0.31,11.19-2.59    c3.22-2.29,4.87-7.59,2.25-10.62c-14.14-1.11-28.28-2.22-42.42-3.34c-4.6-0.36-9.38-0.78-13.38-3.23    c-2.81-1.72-5.03-4.32-7.5-6.55c-9.49-8.59-22.9-11.61-35.1-8.97c-12.2,2.65-23.12,10.62-30.77,21.1    c-0.65,0.89-1.29,1.85-1.39,2.97c-0.3,3.37,3.92,4.67,6.28,6.92c0.53,0.5,0.53,1.04,0.23,1.61c0.73-0.17,1.41-0.51,2.19-0.54    l-8.41,11.49c-4.03,0.21-1.28-2.04,0.08-4.89c1.03-2.17,5.2-4.25,6.14-6.06c-5.57,1.31-10.04,6.28-13.79,11.13    c-0.73,0.94-1.42,2.12-1.72,3.28c8.91-1.37,17.53-5.02,23.78-11.82C1246.85,1397.13,1238.6,1401.31,1229.47,1403.89z"></path>			<path class="st5" d="M1238.22,1392.68c-1.36,2.84-4.11,5.09-0.08,4.89l8.41-11.49c-0.77,0.03-1.46,0.36-2.19,0.54    C1243.41,1388.43,1239.25,1390.51,1238.22,1392.68z"></path>			<path class="st5" d="M1229.19,1403.71c0.07,0.09,0.2,0.09,0.28,0.17c9.13-2.57,17.38-6.75,23.16-14.68    c-6.25,6.81-14.87,10.45-23.78,11.82C1228.6,1401.98,1228.6,1402.93,1229.19,1403.71z"></path>			<path class="st5" d="M987.96,1396.48c-0.32-0.28-0.71-0.47-1.03-0.74c-0.66,0.48-1.33,0.93-2.01,1.39    c1.53,0.35,3.23,0.77,4.99,1.24C989.24,1397.76,988.63,1397.08,987.96,1396.48z"></path>			<path class="st5" d="M992,1400.43c-0.69-0.7-1.39-1.38-2.1-2.05c-1.75-0.47-3.46-0.89-4.99-1.24c-1.19,0.81-2.34,1.46-3.18,1.21    L992,1400.43z"></path>			<path class="st5" d="M992,1400.43l-10.27-2.09c0.84,0.25,1.99-0.4,3.18-1.21c-2.29-0.52-4.12-0.88-4.62-0.84    c-10.1,0.68-5.21,2-15.09-0.34c-2.59-0.61-5.73,0.57-8.38,0.71c-2.65,0.13-5.41,1.28-6.86,3.65c9.13,3.47,14.61,7.16,23.94,9.96    c7.53,2.25,19.11,3.75,26.88,2.77c1.06-0.13,2.11-0.35,3.16-0.56C999.87,1408.61,995.99,1404.45,992,1400.43z"></path>			<path class="st5" d="M1022.07,1412.11c0.12-3.19-2.91-5.36-5.58-6.81c-4.76-2.58-9.6-4.98-14.51-7.22    c-3.49-1.59-7.57-3.05-10.93-1.21c0.05,0.51,0.02,0.8-0.11,0.04c0.04-0.02,0.07-0.02,0.11-0.04c-0.09-0.91-0.54-2.79-1.8-2.47    c-0.63,0.16-1.45,0.71-2.31,1.33c0.33,0.28,0.71,0.46,1.03,0.74c0.67,0.59,1.29,1.28,1.94,1.9c4.59,1.24,9.14,2.73,9.54,3.56    l-7.44-1.51c4,4.02,7.88,8.18,11.94,12.05c1.99-0.39,3.98-0.8,6-1C1013.97,1411.06,1018.04,1411.59,1022.07,1412.11z"></path>			<path class="st5" d="M991.04,1396.88c-0.04,0.02-0.07,0.02-0.11,0.04C991.06,1397.68,991.09,1397.39,991.04,1396.88z"></path>			<path class="st5" d="M999.44,1401.94c-0.39-0.84-4.95-2.32-9.54-3.56c0.71,0.67,1.41,1.36,2.1,2.05L999.44,1401.94z"></path>		</g>	</g></g></svg>